<svg width="512" height="512" viewBox="0 0 512 512" fill="none" xmlns="http://www.w3.org/2000/svg">
  <rect width="512" height="512" rx="64" fill="#FDF8EE"/>
  <rect x="24" y="24" width="464" height="464" rx="48" fill="url(#bg)"/>
  <rect x="54" y="54" width="404" height="404" rx="36" fill="#FFFDF7" stroke="#D8BF92" stroke-width="12"/>
  <g fill="#2F2014">
    <rect x="90" y="90" width="88" height="88" rx="14"/>
    <rect x="334" y="90" width="88" height="88" rx="14"/>
    <rect x="90" y="334" width="88" height="88" rx="14"/>
    <rect x="114" y="114" width="40" height="40" rx="6" fill="#FFF8EA"/>
    <rect x="358" y="114" width="40" height="40" rx="6" fill="#FFF8EA"/>
    <rect x="114" y="358" width="40" height="40" rx="6" fill="#FFF8EA"/>
    <rect x="210" y="96" width="20" height="20" rx="4"/>
    <rect x="240" y="96" width="20" height="20" rx="4"/>
    <rect x="270" y="96" width="20" height="20" rx="4"/>
    <rect x="300" y="96" width="20" height="20" rx="4"/>
    <rect x="210" y="126" width="20" height="20" rx="4"/>
    <rect x="300" y="126" width="20" height="20" rx="4"/>
    <rect x="210" y="156" width="20" height="20" rx="4"/>
    <rect x="240" y="156" width="20" height="20" rx="4"/>
    <rect x="270" y="156" width="20" height="20" rx="4"/>
    <rect x="300" y="156" width="20" height="20" rx="4"/>
    <rect x="196" y="200" width="28" height="28" rx="4"/>
    <rect x="238" y="200" width="28" height="28" rx="4"/>
    <rect x="280" y="200" width="28" height="28" rx="4"/>
    <rect x="322" y="200" width="28" height="28" rx="4"/>
    <rect x="196" y="242" width="28" height="28" rx="4"/>
    <rect x="280" y="242" width="28" height="28" rx="4"/>
    <rect x="322" y="242" width="28" height="28" rx="4"/>
    <rect x="196" y="284" width="28" height="28" rx="4"/>
    <rect x="238" y="284" width="28" height="28" rx="4"/>
    <rect x="322" y="284" width="28" height="28" rx="4"/>
    <rect x="210" y="338" width="20" height="20" rx="4"/>
    <rect x="240" y="338" width="20" height="20" rx="4"/>
    <rect x="270" y="338" width="20" height="20" rx="4"/>
    <rect x="300" y="338" width="20" height="20" rx="4"/>
    <rect x="210" y="368" width="20" height="20" rx="4"/>
    <rect x="300" y="368" width="20" height="20" rx="4"/>
    <rect x="210" y="398" width="20" height="20" rx="4"/>
    <rect x="240" y="398" width="20" height="20" rx="4"/>
    <rect x="270" y="398" width="20" height="20" rx="4"/>
    <rect x="300" y="398" width="20" height="20" rx="4"/>
  </g>
  <g>
    <rect x="84" y="434" width="344" height="16" rx="8" fill="#E8D8B6"/>
    <text x="256" y="447" text-anchor="middle" font-family="KaiTi, STKaiti, serif" font-size="20" fill="#704A24">任玄奇 二维码占位</text>
  </g>
  <defs>
    <linearGradient id="bg" x1="256" y1="24" x2="256" y2="488" gradientUnits="userSpaceOnUse">
      <stop stop-color="#F4E8CD"/>
      <stop offset="1" stop-color="#E4CCA0"/>
    </linearGradient>
  </defs>
</svg>
